<?xml version="1.0" standalone="no"?>
<!DOCTYPE svg PUBLIC "-//W3C//DTD SVG 20010904//EN"
 "http://www.w3.org/TR/2001/REC-SVG-20010904/DTD/svg10.dtd">
<svg version="1.0" xmlns="http://www.w3.org/2000/svg"
 width="512.000000pt" height="512.000000pt" viewBox="0 0 512.000000 512.000000"
 preserveAspectRatio="xMidYMid meet">

<g transform="translate(0.000000,512.000000) scale(0.100000,-0.100000)"
fill="#000000" stroke="none">
<path d="M2405 4511 c-101 -29 -153 -63 -458 -291 l-294 -220 -262 0 c-299 0
-362 -9 -458 -66 -152 -92 -236 -238 -236 -414 0 -176 84 -322 236 -414 116
-69 38 -66 1627 -66 1589 0 1511 -3 1627 66 152 92 236 238 236 414 0 187
-101 349 -267 430 -90 44 -142 50 -429 50 l-260 0 -294 220 c-305 229 -367
268 -469 294 -81 21 -222 20 -299 -3z m237 -311 c21 -6 95 -53 165 -105 l127
-95 -374 0 -374 0 127 95 c71 52 142 99 160 104 44 13 125 13 169 1z m1380
-542 c112 -63 109 -222 -6 -277 -42 -21 -47 -21 -1456 -21 -1409 0 -1414 0
-1456 21 -114 55 -119 209 -9 275 l40 24 1424 0 1423 0 40 -22z"/>
<path d="M1098 2698 c-43 -27 -66 -55 -79 -100 -6 -24 20 -203 116 -780 102
-613 130 -763 155 -826 77 -200 242 -369 438 -448 151 -61 128 -59 837 -59
l650 0 88 28 c49 15 112 39 140 53 178 89 321 250 392 437 37 100 278 1550
265 1597 -14 51 -37 78 -82 101 -50 25 -116 22 -157 -8 -62 -47 -60 -36 -189
-814 -114 -681 -125 -739 -156 -804 -61 -129 -171 -222 -305 -257 -59 -15
-131 -17 -643 -17 -385 -1 -595 3 -630 10 -143 30 -271 130 -333 260 -33 70
-41 115 -157 808 -129 778 -127 767 -190 814 -41 31 -115 33 -160 5z"/>
<path d="M1849 2697 c-46 -24 -89 -88 -89 -134 0 -40 180 -1107 191 -1136 16
-39 73 -85 115 -93 49 -9 106 10 143 48 60 61 60 51 -39 655 -101 613 -103
622 -180 661 -56 28 -86 28 -141 -1z"/>
<path d="M3135 2706 c-39 -17 -81 -67 -89 -103 -3 -16 -46 -272 -96 -571 -100
-602 -99 -590 -36 -651 87 -85 227 -46 260 72 28 99 188 1109 181 1143 -17 93
-130 149 -220 110z"/>
</g>
</svg>
